<mxfile host="app.diagrams.net" modified="2023-04-26T16:59:36.094Z" agent="Mozilla/5.0 (Windows NT 10.0; Win64; x64) AppleWebKit/537.36 (KHTML, like Gecko) Chrome/112.0.0.0 Safari/537.36" etag="BjoQ1lq1dxSzB4bT4BW5" version="21.2.2" type="device">
  <diagram name="หน้า-1" id="urgSFXw30xZpICHWLHbz">
    <mxGraphModel dx="2333" dy="1202" grid="1" gridSize="10" guides="1" tooltips="1" connect="1" arrows="1" fold="1" page="1" pageScale="1" pageWidth="827" pageHeight="1169" math="0" shadow="0">
      <root>
        <mxCell id="0" />
        <mxCell id="1" parent="0" />
        <mxCell id="JP74S6QGwQdt7GijHrg6-97" value="" style="edgeStyle=orthogonalEdgeStyle;rounded=0;orthogonalLoop=1;jettySize=auto;html=1;" edge="1" parent="1" source="JP74S6QGwQdt7GijHrg6-95" target="JP74S6QGwQdt7GijHrg6-96">
          <mxGeometry relative="1" as="geometry" />
        </mxCell>
        <mxCell id="JP74S6QGwQdt7GijHrg6-95" value="start" style="strokeWidth=2;html=1;shape=mxgraph.flowchart.terminator;whiteSpace=wrap;" vertex="1" parent="1">
          <mxGeometry x="40" y="30" width="100" height="60" as="geometry" />
        </mxCell>
        <mxCell id="JP74S6QGwQdt7GijHrg6-101" value="" style="edgeStyle=orthogonalEdgeStyle;rounded=0;orthogonalLoop=1;jettySize=auto;html=1;" edge="1" parent="1" source="JP74S6QGwQdt7GijHrg6-96" target="JP74S6QGwQdt7GijHrg6-100">
          <mxGeometry relative="1" as="geometry" />
        </mxCell>
        <mxCell id="JP74S6QGwQdt7GijHrg6-96" value="input CEyear" style="shape=parallelogram;perimeter=parallelogramPerimeter;whiteSpace=wrap;html=1;fixedSize=1;strokeWidth=2;" vertex="1" parent="1">
          <mxGeometry x="30" y="170" width="120" height="60" as="geometry" />
        </mxCell>
        <mxCell id="JP74S6QGwQdt7GijHrg6-103" value="" style="edgeStyle=orthogonalEdgeStyle;rounded=0;orthogonalLoop=1;jettySize=auto;html=1;" edge="1" parent="1" source="JP74S6QGwQdt7GijHrg6-100" target="JP74S6QGwQdt7GijHrg6-102">
          <mxGeometry relative="1" as="geometry" />
        </mxCell>
        <mxCell id="JP74S6QGwQdt7GijHrg6-100" value="" style="ellipse;whiteSpace=wrap;html=1;strokeWidth=2;" vertex="1" parent="1">
          <mxGeometry x="280" y="190" width="20" height="20" as="geometry" />
        </mxCell>
        <mxCell id="JP74S6QGwQdt7GijHrg6-118" value="" style="edgeStyle=orthogonalEdgeStyle;rounded=0;orthogonalLoop=1;jettySize=auto;html=1;" edge="1" parent="1" source="JP74S6QGwQdt7GijHrg6-102" target="JP74S6QGwQdt7GijHrg6-117">
          <mxGeometry relative="1" as="geometry" />
        </mxCell>
        <mxCell id="JP74S6QGwQdt7GijHrg6-120" value="" style="edgeStyle=orthogonalEdgeStyle;rounded=0;orthogonalLoop=1;jettySize=auto;html=1;" edge="1" parent="1" source="JP74S6QGwQdt7GijHrg6-102" target="JP74S6QGwQdt7GijHrg6-119">
          <mxGeometry relative="1" as="geometry" />
        </mxCell>
        <mxCell id="JP74S6QGwQdt7GijHrg6-102" value="CEyear % 4 == 0 &amp;amp;&amp;amp; CEyear % 100 != 0" style="rhombus;whiteSpace=wrap;html=1;strokeWidth=2;" vertex="1" parent="1">
          <mxGeometry x="150" y="260" width="280" height="80" as="geometry" />
        </mxCell>
        <mxCell id="JP74S6QGwQdt7GijHrg6-122" value="" style="edgeStyle=orthogonalEdgeStyle;rounded=0;orthogonalLoop=1;jettySize=auto;html=1;" edge="1" parent="1" source="JP74S6QGwQdt7GijHrg6-108" target="JP74S6QGwQdt7GijHrg6-121">
          <mxGeometry relative="1" as="geometry" />
        </mxCell>
        <mxCell id="JP74S6QGwQdt7GijHrg6-124" value="" style="edgeStyle=orthogonalEdgeStyle;rounded=0;orthogonalLoop=1;jettySize=auto;html=1;" edge="1" parent="1" source="JP74S6QGwQdt7GijHrg6-108" target="JP74S6QGwQdt7GijHrg6-123">
          <mxGeometry relative="1" as="geometry" />
        </mxCell>
        <mxCell id="JP74S6QGwQdt7GijHrg6-108" value="CEyear % 100 == 0" style="rhombus;whiteSpace=wrap;html=1;strokeWidth=2;" vertex="1" parent="1">
          <mxGeometry x="580" y="260" width="140" height="80" as="geometry" />
        </mxCell>
        <mxCell id="JP74S6QGwQdt7GijHrg6-126" value="" style="edgeStyle=orthogonalEdgeStyle;rounded=0;orthogonalLoop=1;jettySize=auto;html=1;" edge="1" parent="1" source="JP74S6QGwQdt7GijHrg6-110" target="JP74S6QGwQdt7GijHrg6-125">
          <mxGeometry relative="1" as="geometry" />
        </mxCell>
        <mxCell id="JP74S6QGwQdt7GijHrg6-128" value="" style="edgeStyle=orthogonalEdgeStyle;rounded=0;orthogonalLoop=1;jettySize=auto;html=1;" edge="1" parent="1" source="JP74S6QGwQdt7GijHrg6-110" target="JP74S6QGwQdt7GijHrg6-127">
          <mxGeometry relative="1" as="geometry" />
        </mxCell>
        <mxCell id="JP74S6QGwQdt7GijHrg6-110" value="CEyear % 400 == 0" style="rhombus;whiteSpace=wrap;html=1;strokeWidth=2;" vertex="1" parent="1">
          <mxGeometry x="930" y="260" width="160" height="80" as="geometry" />
        </mxCell>
        <mxCell id="JP74S6QGwQdt7GijHrg6-112" value="" style="endArrow=none;html=1;rounded=0;" edge="1" parent="1">
          <mxGeometry width="50" height="50" relative="1" as="geometry">
            <mxPoint x="300" y="200" as="sourcePoint" />
            <mxPoint x="1010" y="200" as="targetPoint" />
          </mxGeometry>
        </mxCell>
        <mxCell id="JP74S6QGwQdt7GijHrg6-113" value="" style="endArrow=classic;html=1;rounded=0;entryX=0.5;entryY=0;entryDx=0;entryDy=0;" edge="1" parent="1" target="JP74S6QGwQdt7GijHrg6-108">
          <mxGeometry width="50" height="50" relative="1" as="geometry">
            <mxPoint x="650" y="200" as="sourcePoint" />
            <mxPoint x="700" y="150" as="targetPoint" />
          </mxGeometry>
        </mxCell>
        <mxCell id="JP74S6QGwQdt7GijHrg6-114" value="" style="endArrow=classic;html=1;rounded=0;entryX=0.5;entryY=0;entryDx=0;entryDy=0;" edge="1" parent="1" target="JP74S6QGwQdt7GijHrg6-110">
          <mxGeometry width="50" height="50" relative="1" as="geometry">
            <mxPoint x="1010" y="200" as="sourcePoint" />
            <mxPoint x="1060" y="150" as="targetPoint" />
          </mxGeometry>
        </mxCell>
        <mxCell id="JP74S6QGwQdt7GijHrg6-117" value="yes" style="shape=parallelogram;perimeter=parallelogramPerimeter;whiteSpace=wrap;html=1;fixedSize=1;strokeWidth=2;" vertex="1" parent="1">
          <mxGeometry x="20" y="430" width="120" height="60" as="geometry" />
        </mxCell>
        <mxCell id="JP74S6QGwQdt7GijHrg6-119" value="no" style="shape=parallelogram;perimeter=parallelogramPerimeter;whiteSpace=wrap;html=1;fixedSize=1;strokeWidth=2;" vertex="1" parent="1">
          <mxGeometry x="230" y="430" width="120" height="60" as="geometry" />
        </mxCell>
        <mxCell id="JP74S6QGwQdt7GijHrg6-121" value="yes" style="shape=parallelogram;perimeter=parallelogramPerimeter;whiteSpace=wrap;html=1;fixedSize=1;strokeWidth=2;" vertex="1" parent="1">
          <mxGeometry x="440" y="430" width="120" height="60" as="geometry" />
        </mxCell>
        <mxCell id="JP74S6QGwQdt7GijHrg6-123" value="no" style="shape=parallelogram;perimeter=parallelogramPerimeter;whiteSpace=wrap;html=1;fixedSize=1;strokeWidth=2;" vertex="1" parent="1">
          <mxGeometry x="750" y="430" width="120" height="60" as="geometry" />
        </mxCell>
        <mxCell id="JP74S6QGwQdt7GijHrg6-125" value="yes" style="shape=parallelogram;perimeter=parallelogramPerimeter;whiteSpace=wrap;html=1;fixedSize=1;strokeWidth=2;" vertex="1" parent="1">
          <mxGeometry x="950" y="430" width="120" height="60" as="geometry" />
        </mxCell>
        <mxCell id="JP74S6QGwQdt7GijHrg6-127" value="no" style="shape=parallelogram;perimeter=parallelogramPerimeter;whiteSpace=wrap;html=1;fixedSize=1;strokeWidth=2;" vertex="1" parent="1">
          <mxGeometry x="1150" y="430" width="120" height="60" as="geometry" />
        </mxCell>
        <mxCell id="JP74S6QGwQdt7GijHrg6-129" value="yes" style="text;html=1;strokeColor=none;fillColor=none;align=center;verticalAlign=middle;whiteSpace=wrap;rounded=0;" vertex="1" parent="1">
          <mxGeometry x="80" y="360" width="60" height="30" as="geometry" />
        </mxCell>
        <mxCell id="JP74S6QGwQdt7GijHrg6-130" value="yes" style="text;html=1;strokeColor=none;fillColor=none;align=center;verticalAlign=middle;whiteSpace=wrap;rounded=0;" vertex="1" parent="1">
          <mxGeometry x="500" y="350" width="60" height="30" as="geometry" />
        </mxCell>
        <mxCell id="JP74S6QGwQdt7GijHrg6-131" value="yes" style="text;html=1;strokeColor=none;fillColor=none;align=center;verticalAlign=middle;whiteSpace=wrap;rounded=0;" vertex="1" parent="1">
          <mxGeometry x="1010" y="370" width="60" height="30" as="geometry" />
        </mxCell>
        <mxCell id="JP74S6QGwQdt7GijHrg6-132" value="no" style="text;html=1;strokeColor=none;fillColor=none;align=center;verticalAlign=middle;whiteSpace=wrap;rounded=0;" vertex="1" parent="1">
          <mxGeometry x="290" y="370" width="60" height="30" as="geometry" />
        </mxCell>
        <mxCell id="JP74S6QGwQdt7GijHrg6-133" value="no" style="text;html=1;strokeColor=none;fillColor=none;align=center;verticalAlign=middle;whiteSpace=wrap;rounded=0;" vertex="1" parent="1">
          <mxGeometry x="810" y="350" width="60" height="30" as="geometry" />
        </mxCell>
        <mxCell id="JP74S6QGwQdt7GijHrg6-134" value="no" style="text;html=1;strokeColor=none;fillColor=none;align=center;verticalAlign=middle;whiteSpace=wrap;rounded=0;" vertex="1" parent="1">
          <mxGeometry x="1210" y="350" width="60" height="30" as="geometry" />
        </mxCell>
        <mxCell id="JP74S6QGwQdt7GijHrg6-135" value="" style="ellipse;whiteSpace=wrap;html=1;aspect=fixed;" vertex="1" parent="1">
          <mxGeometry x="625" y="650" width="50" height="50" as="geometry" />
        </mxCell>
        <mxCell id="JP74S6QGwQdt7GijHrg6-136" value="" style="endArrow=none;html=1;rounded=0;" edge="1" parent="1">
          <mxGeometry width="50" height="50" relative="1" as="geometry">
            <mxPoint x="80" y="680" as="sourcePoint" />
            <mxPoint x="80" y="490" as="targetPoint" />
          </mxGeometry>
        </mxCell>
        <mxCell id="JP74S6QGwQdt7GijHrg6-138" value="" style="endArrow=none;html=1;rounded=0;" edge="1" parent="1">
          <mxGeometry width="50" height="50" relative="1" as="geometry">
            <mxPoint x="290" y="680" as="sourcePoint" />
            <mxPoint x="290" y="490" as="targetPoint" />
          </mxGeometry>
        </mxCell>
        <mxCell id="JP74S6QGwQdt7GijHrg6-139" value="" style="endArrow=none;html=1;rounded=0;" edge="1" parent="1">
          <mxGeometry width="50" height="50" relative="1" as="geometry">
            <mxPoint x="498.75" y="680" as="sourcePoint" />
            <mxPoint x="498.75" y="490" as="targetPoint" />
          </mxGeometry>
        </mxCell>
        <mxCell id="JP74S6QGwQdt7GijHrg6-140" value="" style="endArrow=none;html=1;rounded=0;" edge="1" parent="1">
          <mxGeometry width="50" height="50" relative="1" as="geometry">
            <mxPoint x="808.75" y="680" as="sourcePoint" />
            <mxPoint x="808.75" y="490" as="targetPoint" />
          </mxGeometry>
        </mxCell>
        <mxCell id="JP74S6QGwQdt7GijHrg6-141" value="" style="endArrow=none;html=1;rounded=0;" edge="1" parent="1">
          <mxGeometry width="50" height="50" relative="1" as="geometry">
            <mxPoint x="1010" y="680" as="sourcePoint" />
            <mxPoint x="1010" y="490" as="targetPoint" />
          </mxGeometry>
        </mxCell>
        <mxCell id="JP74S6QGwQdt7GijHrg6-142" value="" style="endArrow=none;html=1;rounded=0;" edge="1" parent="1">
          <mxGeometry width="50" height="50" relative="1" as="geometry">
            <mxPoint x="1210" y="680" as="sourcePoint" />
            <mxPoint x="1210" y="490" as="targetPoint" />
          </mxGeometry>
        </mxCell>
        <mxCell id="JP74S6QGwQdt7GijHrg6-143" value="" style="endArrow=classic;html=1;rounded=0;entryX=0.031;entryY=0.595;entryDx=0;entryDy=0;entryPerimeter=0;" edge="1" parent="1" target="JP74S6QGwQdt7GijHrg6-135">
          <mxGeometry width="50" height="50" relative="1" as="geometry">
            <mxPoint x="80" y="680" as="sourcePoint" />
            <mxPoint x="130" y="630" as="targetPoint" />
          </mxGeometry>
        </mxCell>
        <mxCell id="JP74S6QGwQdt7GijHrg6-144" value="" style="endArrow=classic;html=1;rounded=0;entryX=1.049;entryY=0.585;entryDx=0;entryDy=0;entryPerimeter=0;" edge="1" parent="1" target="JP74S6QGwQdt7GijHrg6-135">
          <mxGeometry width="50" height="50" relative="1" as="geometry">
            <mxPoint x="1210" y="680" as="sourcePoint" />
            <mxPoint x="730" y="680" as="targetPoint" />
          </mxGeometry>
        </mxCell>
        <mxCell id="JP74S6QGwQdt7GijHrg6-145" value="" style="endArrow=classic;html=1;rounded=0;" edge="1" parent="1">
          <mxGeometry width="50" height="50" relative="1" as="geometry">
            <mxPoint x="650" y="700" as="sourcePoint" />
            <mxPoint x="650" y="740" as="targetPoint" />
          </mxGeometry>
        </mxCell>
        <mxCell id="JP74S6QGwQdt7GijHrg6-146" value="stop" style="strokeWidth=2;html=1;shape=mxgraph.flowchart.terminator;whiteSpace=wrap;" vertex="1" parent="1">
          <mxGeometry x="600" y="740" width="100" height="60" as="geometry" />
        </mxCell>
      </root>
    </mxGraphModel>
  </diagram>
</mxfile>
